<svg width="188" height="80" viewBox="0 0 188 80" fill="none" xmlns="http://www.w3.org/2000/svg">
<g clip-path="url(#clip0_176_386)">
<path d="M51.5423 76.5401C56.2581 76.5088 60.0591 72.6888 60.0275 68.0078L59.7594 30.1526C59.7279 25.4716 55.8795 21.6986 51.1638 21.7299L8.48525 22.0274C3.76947 22.0744 -0.0315318 25.8943 1.18121e-05 30.5753L0.268133 68.4149C0.299676 73.0959 4.148 76.8689 8.86377 76.8376L51.5423 76.5401Z" fill="#FED107"/>
<path d="M50.9587 73.1585C54.0973 73.1428 56.6366 70.591 56.605 67.4755L56.3527 30.7475C56.3369 27.6321 53.7661 25.1115 50.6275 25.1428L9.08456 25.4246C5.94597 25.4403 3.4067 27.9921 3.43825 31.1076L3.6906 67.8356C3.70637 70.951 6.27717 73.4716 9.41576 73.4403L50.9587 73.1585Z" fill="#D62027"/>
<path d="M20.74 36.7123L20.803 44.6184L6.00909 44.728L5.99332 43.0215L20.74 36.7123Z" fill="#E6E7E8"/>
<path d="M20.0933 35.0215L20.0618 30.4344L28.6732 30.3718L28.9255 66.0352L20.3141 66.0979L20.2826 61.5734L23.1215 61.5577L23.0742 53.7926C23.0584 50.7554 17.4279 50.7241 17.4594 54.3249L17.5383 66.1135L9.00573 66.1761L8.97418 61.6517L11.8131 61.636L11.75 52.4462C12.302 46.9198 19.1628 44.1957 23.0269 48.4071L22.9322 34.9902L20.0933 35.0215Z" fill="#E6E7E8"/>
<path d="M38.9879 36.6027L39.0353 44.5088L53.8292 44.4305L53.8135 42.7241L38.9879 36.6027Z" fill="#E6E7E8"/>
<path d="M39.6188 34.8963L39.5873 30.3092L30.9759 30.3561L31.1967 66.0195L39.8081 65.9726L39.7765 61.4481L36.9376 61.4638L36.8903 53.6986C36.8745 50.6614 42.4893 50.5518 42.5208 54.1526L42.5839 65.9413L51.1165 65.8943L51.0849 61.3698L48.246 61.3855L48.1987 52.2113C47.5836 46.6849 40.6755 44.0704 36.8587 48.3287L36.7799 34.9119L39.6188 34.8963Z" fill="#E6E7E8"/>
<path d="M85.8933 28.5714L82.6443 28.5871L82.597 21.5577L97.4067 21.4482L97.454 28.4932L94.205 28.5088L94.347 48.7045L97.596 48.6732L97.6433 55.7182L82.8335 55.8121L82.7862 48.7828L86.0352 48.7515L85.9879 42.5362L75.405 42.6145L75.4523 48.8298L78.7013 48.8141L78.7486 55.8435L63.9389 55.9374L63.8916 48.908L67.1406 48.8924L66.9986 28.6967L63.7496 28.7123L63.7023 21.683L78.5121 21.589L78.5594 28.6184L75.3104 28.6341L75.3577 34.3797L85.9248 34.3014L85.8933 28.5714Z" fill="white"/>
<path d="M122.09 43.0059C122.137 50.317 116.475 56.2505 109.346 56.2975C102.264 56.3444 96.4604 50.5049 96.4131 43.1938C96.3658 35.9765 102.075 30.0431 109.157 29.9961C116.238 29.9491 122.042 35.7887 122.09 43.0059ZM103.589 43.1938C103.605 46.4971 106.16 49.1585 109.299 49.1272C112.437 49.1116 114.945 46.4188 114.929 43.1155C114.913 39.8121 112.358 37.1507 109.267 37.182C106.065 37.1977 103.558 39.8748 103.589 43.1938Z" fill="white"/>
<path d="M129.912 33.4403C131.742 30.9511 133.777 29.8239 136.489 29.8082C139.691 29.7926 142.151 31.2798 143.792 34.364C145.527 31.3112 148.145 29.7299 151.536 29.7143C154.296 29.6986 156.961 30.9198 158.601 32.9237C159.926 34.5675 160.478 36.4462 160.494 39.5303L160.557 48.454L163.128 48.4384L163.175 55.2016L153.46 55.2642L153.365 41.4247C153.349 38.3405 152.166 36.8845 149.674 36.9002C146.962 36.9159 145.479 38.6693 145.511 41.8943L145.558 48.5636L148.129 48.548L148.176 55.3112L138.413 55.3738L138.319 42.1761C138.303 39.7808 138.208 39.1389 137.609 38.3562C136.978 37.4481 135.969 36.9941 134.754 36.9941C132.136 37.0098 130.654 38.9511 130.685 42.364L130.733 48.6575L133.303 48.6419L133.351 55.4051L121.017 55.4834L120.97 48.7202L123.541 48.7045L123.462 37.3855L120.891 37.4012L120.844 30.638L129.881 30.5753L129.912 33.4403Z" fill="white"/>
<path d="M187.038 47.6243C185.066 52.6028 180.493 55.8122 175.177 55.8435C167.686 55.8904 161.882 50.1918 161.819 42.7398C161.771 35.3816 167.449 29.5891 174.752 29.5421C182.101 29.4951 187.858 35.1625 187.921 42.4266C187.921 43.4912 187.89 44.1801 187.621 45.4638L168.963 45.5891C170.146 48.1096 172.386 49.5186 175.13 49.503C176.991 49.4873 178.427 48.8767 179.452 47.6869L187.038 47.6243ZM174.815 35.9765C172.165 35.9922 169.799 37.6204 168.885 40.1096L181.171 40.0313C179.988 37.4638 177.654 35.9609 174.815 35.9765Z" fill="white"/>
<path d="M110.429 62.8839L108.663 62.896L108.678 65.0721L110.444 65.06L110.429 62.8839Z" fill="#D62027"/>
<path d="M84.9785 74.6145L86.398 74.5988L86.4137 76.2583L83.354 76.274L83.3382 74.9746C82.6127 76.0078 81.5718 76.5558 80.2943 76.5714C78.1178 76.5871 76.5721 74.9746 76.5564 72.6419L76.5248 68.18L75.1054 68.1957L75.0896 66.5362L78.2755 66.5206L78.307 72.047C78.3228 73.8474 79.2533 74.9432 80.7201 74.9276C82.2342 74.9119 83.1805 73.7847 83.1648 72.0157L83.1332 68.1487L81.7137 68.1644L81.698 66.5049L84.8839 66.4892L84.9785 74.6145Z" fill="#D62027"/>
<path d="M89.8205 74.5832H91.2399L91.2557 76.2427L86.6346 76.274V74.6145L88.054 74.5988L88.0067 68.1331H86.5872L86.5715 66.4736L89.7731 66.4579L89.8205 74.5832Z" fill="#D62027"/>
<path d="M89.7362 63.0249L87.9697 63.037L87.9849 65.2131L89.7513 65.201L89.7362 63.0249Z" fill="#D62027"/>
<path d="M94.694 74.5519H96.1292V76.2113L91.5238 76.2427L91.508 74.5832L92.9275 74.5675L92.8644 64.6575L91.445 64.6732L91.4292 62.998L94.6151 62.9824L94.694 74.5519Z" fill="#D62027"/>
<path d="M110.513 74.4423H111.933L111.948 76.1018L107.327 76.1331L107.311 74.4736L108.731 74.4579L108.699 67.9922H107.264V66.3327L110.45 66.317L110.513 74.4423Z" fill="#D62027"/>
<path d="M115.308 67.6164C116.049 66.5362 116.932 66.0665 118.241 66.0665C119.44 66.0509 120.544 66.5362 121.285 67.3973C121.869 68.0704 122.105 68.8219 122.105 70.0744L122.137 74.3796L123.556 74.364L123.572 76.0235L118.951 76.0548L118.935 74.3953L120.355 74.3796L120.323 70.6536C120.307 68.8376 119.393 67.82 117.8 67.82C116.191 67.8356 115.308 68.8845 115.323 70.7945L115.355 74.4109L116.774 74.3953L116.79 76.0548L112.169 76.0861L112.153 74.4266L113.573 74.4109L113.525 67.9452L112.106 67.9609L112.09 66.3014L115.276 66.2857L115.308 67.6164Z" fill="#D62027"/>
<path d="M146.662 69.1507L145.022 69.1663C144.296 68.1331 143.334 67.5851 142.199 67.6008C140.385 67.6164 138.965 69.135 138.981 71.045C138.997 72.9237 140.448 74.411 142.293 74.411C143.539 74.3953 144.533 73.7847 145.069 72.6888L147.041 72.6732C146.284 74.8024 144.454 76.1487 142.277 76.1644C139.47 76.18 137.167 73.8943 137.152 71.0294C137.136 68.1957 139.344 65.8787 142.104 65.863C143.271 65.8474 144.202 66.2387 145.116 67.0841V66.0978L146.646 66.0822L146.662 69.1507Z" fill="#D62027"/>
<path d="M159.784 67.3033C160.525 66.2231 161.424 65.7534 162.718 65.7534C163.916 65.7378 165.02 66.2231 165.762 67.0841C166.345 67.7573 166.582 68.5088 166.582 69.7612L166.613 74.0665L168.033 74.0509L168.049 75.7104L163.427 75.7417L163.412 74.0822L164.831 74.0665L164.8 70.3405C164.784 68.5245 163.869 67.5068 162.276 67.5068C160.667 67.5225 159.784 68.5714 159.8 70.4814L159.832 74.0978L161.251 74.0822L161.267 75.7417L156.646 75.773L156.63 74.1135L158.049 74.0978L158.002 67.6321L156.583 67.6477L156.567 65.9883L159.753 65.9726L159.784 67.3033Z" fill="#D62027"/>
<path d="M170.209 74.0352L172.197 74.0196L172.212 75.6791L168.459 75.7104L168.396 67.5851H166.724L166.708 65.9256L168.38 65.91L168.364 62.4814L170.131 62.4657L170.162 65.91L172.023 65.8943V67.5538L170.162 67.5695L170.209 74.0352Z" fill="#D62027"/>
<path d="M175.493 67.6164C176.124 66.3796 176.96 65.863 178.505 65.7221L178.521 67.5538C176.66 67.6947 175.635 68.7906 175.635 70.6223L175.651 73.9883L177.07 73.9726L177.086 75.6321L172.465 75.6634L172.449 74.0039L173.868 73.9883L173.821 67.5225L172.402 67.5382L172.386 65.8787L175.446 65.863L175.493 67.6164Z" fill="#D62027"/>
<path d="M67.2668 68.0391C68.1184 66.9433 69.1909 66.411 70.6262 66.411C73.402 66.3953 75.6731 68.6497 75.7047 71.4521C75.7205 74.2857 73.5439 76.5558 70.8154 76.5714C69.396 76.5871 68.2604 76.0705 67.3141 75.0215L67.3299 76.4149L64.1439 76.4305L64.1282 74.771L65.5476 74.7554L65.4846 64.8454L64.0651 64.8611L64.0493 63.2016L67.2352 63.1859L67.2668 68.0391ZM67.2037 71.4834C67.2194 73.3934 68.7178 74.9119 70.6104 74.8963C72.4557 74.8806 73.9382 73.3464 73.9225 71.4521C73.9067 69.5421 72.4084 68.0235 70.5473 68.0391C68.6862 68.0548 67.1879 69.6047 67.2037 71.4834Z" fill="#D62027"/>
<path d="M105.624 74.4736L107.043 74.4579L107.059 76.1174L103.857 76.1331L103.842 74.6928C102.943 75.8043 101.823 76.3523 100.403 76.3679C97.6117 76.3836 95.3248 74.1135 95.309 71.2798C95.2933 68.4932 97.5171 66.1761 100.277 66.1605C101.665 66.1448 102.832 66.6615 103.794 67.6947L103.779 64.5636L102.359 64.5793V62.9354L105.561 62.9198L105.624 74.4736ZM97.1701 71.3268C97.1859 73.1898 98.7 74.7241 100.545 74.7084C102.406 74.6928 103.889 73.1585 103.873 71.2329C103.857 69.3699 102.328 67.8669 100.498 67.8669C98.6527 67.8669 97.1701 69.4168 97.1701 71.3268Z" fill="#D62027"/>
<path d="M125.512 76.9472C126.048 77.9178 126.995 78.4657 128.146 78.4657C130.039 78.4501 131.474 76.9941 131.411 75.1468L131.395 74.5049C130.464 75.6321 129.36 76.18 127.925 76.1957C125.134 76.2113 122.878 73.9569 122.847 71.1233C122.831 68.2896 125.07 66.0196 127.941 66.0039C129.408 65.9883 130.449 66.4736 131.363 67.5695L131.348 66.1605L134.534 66.1448L134.549 67.8043L133.13 67.82L133.177 74.8493C133.193 76.5871 132.799 77.6673 131.821 78.591C130.859 79.5147 129.628 80 128.162 80C125.827 80.0156 124.061 78.8884 123.462 76.9628L125.512 76.9472ZM124.645 71.092C124.66 73.0019 126.19 74.5205 128.051 74.5049C129.912 74.4892 131.411 72.955 131.411 71.045C131.395 69.1663 129.865 67.6321 128.004 67.6477C126.143 67.6634 124.645 69.2133 124.645 71.092Z" fill="#D62027"/>
<path d="M156.803 72.9706C155.936 74.9119 154.233 76.0705 152.23 76.0861C149.375 76.1018 147.119 73.8474 147.104 70.9824C147.088 68.1174 149.312 65.7847 152.088 65.7691C154.958 65.7534 157.135 67.9922 157.166 70.9667C157.166 71.1076 157.15 71.3581 157.135 71.6712L148.854 71.7339C149.217 73.456 150.495 74.5362 152.198 74.5205C153.397 74.5049 154.296 74.0196 154.974 72.9863L156.803 72.9706ZM152.103 67.3816C150.495 67.3973 149.17 68.4931 148.839 70.1057L155.542 70.0587C155.116 68.4305 153.759 67.3659 152.103 67.3816Z" fill="#D62027"/>
<path d="M187.653 72.7515C186.786 74.6928 185.082 75.8513 183.079 75.8669C180.24 75.8826 177.969 73.6282 177.953 70.7632C177.938 67.8982 180.161 65.5656 182.937 65.5499C185.808 65.5342 187.984 67.773 188.016 70.7476C188.016 70.8885 188 71.1389 187.984 71.4521L179.704 71.5147C180.067 73.2368 181.344 74.317 183.048 74.3014C184.246 74.2857 185.145 73.8004 185.823 72.7671L187.653 72.7515ZM182.937 67.1624C181.329 67.1781 180.004 68.274 179.672 69.8865L186.375 69.8395C185.965 68.2113 184.593 67.1468 182.937 67.1624Z" fill="#D62027"/>
<path d="M67.2195 14.6693C63.308 14.7006 59.9013 11.6008 59.8698 7.37376C59.8382 3.24069 63.1976 0.0782642 67.0775 0.0626086C69.0174 0.046953 70.4211 0.735798 71.6513 1.92562L71.6356 0.391376L73.402 0.37572L73.4335 4.35224L71.4148 4.36789C70.4211 2.88061 68.844 2.16046 67.1406 2.17611C64.2544 2.19177 61.999 4.43051 62.0148 7.37376C62.0305 10.3327 64.3648 12.6027 67.2195 12.5714C68.9859 12.5558 70.5946 11.679 71.5409 10.1918L73.8121 10.1761C72.6134 13.0567 69.9322 14.6536 67.2195 14.6693Z" fill="white"/>
<path d="M82.9755 14.2153L82.9597 12.4618C82.108 13.636 81.0513 14.4501 79.206 14.4501C76.2882 14.4657 73.9067 12.0704 73.8909 9.17416C73.8751 6.29353 76.1936 3.72601 79.206 3.6947C80.9094 3.67905 82.0134 4.41486 82.9124 5.68296L82.8966 3.89823L86.3191 3.88257L86.3349 5.63599H84.8523L84.8996 12.4618L86.398 12.4462L86.4137 14.1996L82.9755 14.2153ZM79.348 5.57337C77.3449 5.58903 75.7993 7.21721 75.8151 9.12719C75.8309 11.0372 77.3923 12.6027 79.3795 12.5871C81.3352 12.5714 82.9597 11.0059 82.9439 9.0176C82.9282 7.10762 81.351 5.55772 79.348 5.57337Z" fill="white"/>
<path d="M94.4889 14.3562C92.5805 14.3718 91.4607 13.5734 90.5617 12.3523L90.5933 16.1566L92.1231 16.1409L92.1389 17.8787L87.1866 17.91L87.1708 16.1722L88.6691 16.1566L88.5903 5.6047L87.0919 5.62035L87.0762 3.86693L90.4986 3.85127L90.5144 5.77691C91.3819 4.35225 92.5963 3.61644 94.2839 3.60078C97.249 3.58513 99.5674 6.01174 99.5832 8.95499C99.6148 11.8356 97.3909 14.3249 94.4889 14.3562ZM94.1104 5.4638C92.1547 5.47945 90.5302 6.93542 90.546 8.95499C90.5617 11.0215 92.2335 12.4932 94.1577 12.4775C96.145 12.4618 97.659 10.8806 97.6433 8.89237C97.6433 6.95108 96.145 5.4638 94.1104 5.4638Z" fill="white"/>
<path d="M99.9302 14.1057L99.9144 12.3523L101.444 12.3366L101.413 5.51076L99.8829 5.52642L99.8671 3.77299L103.305 3.75734L103.368 12.3366L104.883 12.3209L104.898 14.0744L99.9302 14.1057ZM101.381 2.47358L101.365 0.172211L103.274 0.156555L103.29 2.45793L101.381 2.47358Z" fill="white"/>
<path d="M106.901 14.0587L106.838 5.47945L105.04 5.49511L105.024 3.74168L106.822 3.72603L106.791 0.1409L108.699 0.125244L108.731 3.71037L110.734 3.69472L110.75 5.44814L108.747 5.4638L108.794 12.2896L110.939 12.274L110.955 14.0274L106.901 14.0587Z" fill="white"/>
<path d="M119.645 13.9648L119.629 12.2113C118.778 13.3855 117.721 14.1996 115.876 14.1996C112.958 14.2309 110.576 11.8199 110.56 8.92367C110.545 6.04304 112.863 3.47553 115.876 3.44421C117.579 3.42856 118.683 4.16437 119.582 5.43247L119.566 3.64774L122.989 3.63208L123.004 5.38551L121.506 5.40116L121.553 12.227L123.052 12.2113L123.067 13.9648H119.645ZM116.017 5.32288C114.014 5.33854 112.469 6.96672 112.485 8.8767C112.5 10.7867 114.062 12.3522 116.049 12.3366C118.005 12.3209 119.629 10.7554 119.613 8.76711C119.598 6.85713 118.005 5.30723 116.017 5.32288Z" fill="white"/>
<path d="M123.824 13.9335L123.809 12.18L125.417 12.1644L125.339 1.76908L123.809 1.78474V0.0313112L127.247 0L127.326 12.1487L128.856 12.1331L128.871 13.8865L123.824 13.9335Z" fill="white"/>
</g>
<defs>
<clipPath id="clip0_176_386">
<rect width="188" height="80" fill="white"/>
</clipPath>
</defs>
</svg>
